<svg width="1920" height="1080" xmlns="http://www.w3.org/2000/svg">
  <defs>
    <!-- 瀑布背景渐变 -->
    <linearGradient id="waterfallGrad" x1="0%" y1="0%" x2="100%" y2="100%">
      <stop offset="0%" style="stop-color:#2c3e50;stop-opacity:1" />
      <stop offset="30%" style="stop-color:#34495e;stop-opacity:1" />
      <stop offset="60%" style="stop-color:#1a252f;stop-opacity:1" />
      <stop offset="100%" style="stop-color:#0f1419;stop-opacity:1" />
    </linearGradient>
    
    <!-- 水流效果 -->
    <linearGradient id="waterGrad" x1="0%" y1="0%" x2="0%" y2="100%">
      <stop offset="0%" style="stop-color:#ecf0f1;stop-opacity:0.9" />
      <stop offset="50%" style="stop-color:#bdc3c7;stop-opacity:0.7" />
      <stop offset="100%" style="stop-color:#95a5a6;stop-opacity:0.5" />
    </linearGradient>
    
    <!-- 苔藓绿色 -->
    <linearGradient id="mossGrad" x1="0%" y1="0%" x2="100%" y2="100%">
      <stop offset="0%" style="stop-color:#27ae60;stop-opacity:0.8" />
      <stop offset="100%" style="stop-color:#2ecc71;stop-opacity:0.6" />
    </linearGradient>
    
    <!-- 秋叶颜色 -->
    <linearGradient id="leafGrad" x1="0%" y1="0%" x2="100%" y2="100%">
      <stop offset="0%" style="stop-color:#e67e22;stop-opacity:0.7" />
      <stop offset="50%" style="stop-color:#f39c12;stop-opacity:0.6" />
      <stop offset="100%" style="stop-color:#d35400;stop-opacity:0.5" />
    </linearGradient>
    
    <!-- 动态水流效果 -->
    <pattern id="waterFlow" width="20" height="100" patternUnits="userSpaceOnUse">
      <rect width="20" height="100" fill="url(#waterGrad)" opacity="0.3">
        <animateTransform attributeName="transform" type="translate" 
                          values="0,0;0,20;0,0" dur="2s" repeatCount="indefinite"/>
      </rect>
    </pattern>
  </defs>
  
  <!-- 背景 -->
  <rect width="100%" height="100%" fill="url(#waterfallGrad)"/>
  
  <!-- 岩石结构 -->
  <polygon points="0,0 1920,0 1920,400 1800,450 1600,500 1400,550 1200,600 1000,650 800,700 600,750 400,800 200,850 0,900" 
           fill="#2c3e50" opacity="0.8"/>
  
  <polygon points="0,200 1920,150 1920,600 1800,650 1600,700 1400,750 1200,800 1000,850 800,900 600,950 400,1000 200,1050 0,1080" 
           fill="#34495e" opacity="0.7"/>
  
  <!-- 瀑布水流 -->
  <rect x="800" y="0" width="200" height="1080" fill="url(#waterFlow)" opacity="0.6"/>
  <rect x="1000" y="0" width="150" height="1080" fill="url(#waterFlow)" opacity="0.4"/>
  <rect x="1150" y="0" width="100" height="1080" fill="url(#waterFlow)" opacity="0.5"/>
  
  <!-- 苔藓覆盖 -->
  <ellipse cx="300" cy="400" rx="80" ry="40" fill="url(#mossGrad)">
    <animate attributeName="opacity" values="0.6;0.8;0.6" dur="4s" repeatCount="indefinite"/>
  </ellipse>
  
  <ellipse cx="1600" cy="600" rx="120" ry="60" fill="url(#mossGrad)">
    <animate attributeName="opacity" values="0.5;0.7;0.5" dur="5s" repeatCount="indefinite"/>
  </ellipse>
  
  <ellipse cx="500" cy="800" rx="100" ry="50" fill="url(#mossGrad)">
    <animate attributeName="opacity" values="0.4;0.6;0.4" dur="6s" repeatCount="indefinite"/>
  </ellipse>
  
  <!-- 秋叶 -->
  <circle cx="200" cy="300" r="8" fill="url(#leafGrad)">
    <animateTransform attributeName="transform" type="translate" 
                      values="0,0;50,100;100,200" dur="8s" repeatCount="indefinite"/>
  </circle>
  
  <circle cx="1700" cy="400" r="6" fill="url(#leafGrad)">
    <animateTransform attributeName="transform" type="translate" 
                      values="0,0;-30,80;-60,160" dur="6s" repeatCount="indefinite"/>
  </circle>
  
  <circle cx="400" cy="600" r="10" fill="url(#leafGrad)">
    <animateTransform attributeName="transform" type="translate" 
                      values="0,0;40,120;80,240" dur="7s" repeatCount="indefinite"/>
  </circle>
  
  <!-- 枯枝 -->
  <line x1="100" y1="200" x2="300" y2="400" stroke="#8b4513" stroke-width="3" opacity="0.6"/>
  <line x1="1600" y1="300" x2="1800" y2="500" stroke="#8b4513" stroke-width="2" opacity="0.5"/>
  
  <!-- 水花效果 -->
  <circle cx="900" cy="300" r="3" fill="#ecf0f1" opacity="0.8">
    <animate attributeName="cy" values="300;320;300" dur="1s" repeatCount="indefinite"/>
  </circle>
  
  <circle cx="1100" cy="400" r="2" fill="#ecf0f1" opacity="0.6">
    <animate attributeName="cy" values="400;420;400" dur="1.5s" repeatCount="indefinite"/>
  </circle>
  
  <circle cx="1200" cy="500" r="4" fill="#ecf0f1" opacity="0.7">
    <animate attributeName="cy" values="500;520;500" dur="1.2s" repeatCount="indefinite"/>
  </circle>
  
  <!-- 光线效果 -->
  <ellipse cx="1000" cy="200" rx="300" ry="100" fill="rgba(255,255,255,0.1)">
    <animate attributeName="opacity" values="0.1;0.3;0.1" dur="3s" repeatCount="indefinite"/>
  </ellipse>
</svg>
